<?xml version="1.0" encoding="UTF-8" standalone="no"?>
<!DOCTYPE svg PUBLIC "-//W3C//DTD SVG 1.1//EN"
 "http://www.w3.org/Graphics/SVG/1.1/DTD/svg11.dtd">
<!-- Generated by graphviz version 2.40.1 (20161225.0304)
 -->
<!-- Title: controllers_diagram Pages: 1 -->
<svg width="660pt" height="613pt"
 viewBox="0.00 0.00 660.32 613.00" xmlns="http://www.w3.org/2000/svg" xmlns:xlink="http://www.w3.org/1999/xlink">
<g id="graph0" class="graph" transform="scale(1 1) rotate(0) translate(4 609)">
<title>controllers_diagram</title>
<polygon fill="transparent" stroke="transparent" points="-4,4 -4,-609 656.3242,-609 656.3242,4 -4,4"/>
<!-- _diagram_info -->
<g id="node1" class="node">
<title>_diagram_info</title>
<text text-anchor="start" x="24" y="-106.6" font-family="Times,serif" font-size="13.00" fill="#000000">Controllers diagram</text>
<text text-anchor="start" x="24" y="-93.6" font-family="Times,serif" font-size="13.00" fill="#000000">Date: May 22 2017 &#45; 10:57</text>
<text text-anchor="start" x="24" y="-80.6" font-family="Times,serif" font-size="13.00" fill="#000000">Migration version: 20170506012256</text>
<text text-anchor="start" x="24" y="-67.6" font-family="Times,serif" font-size="13.00" fill="#000000">Generated by RailRoady 1.5.2</text>
<text text-anchor="start" x="24" y="-54.6" font-family="Times,serif" font-size="13.00" fill="#000000">http://railroady.prestonlee.com</text>
</g>
<!-- Api::V1::CommentsController -->
<g id="node2" class="node">
<title>Api::V1::CommentsController</title>
<path fill="none" stroke="#000000" d="M140,-160.5C140,-160.5 303.8828,-160.5 303.8828,-160.5 309.8828,-160.5 315.8828,-166.5 315.8828,-172.5 315.8828,-172.5 315.8828,-308.5 315.8828,-308.5 315.8828,-314.5 309.8828,-320.5 303.8828,-320.5 303.8828,-320.5 140,-320.5 140,-320.5 134,-320.5 128,-314.5 128,-308.5 128,-308.5 128,-172.5 128,-172.5 128,-166.5 134,-160.5 140,-160.5"/>
<text text-anchor="middle" x="221.9414" y="-305.3" font-family="Times,serif" font-size="14.00" fill="#000000">Api::V1::CommentsController</text>
<polyline fill="none" stroke="#000000" points="128,-298.5 315.8828,-298.5 "/>
<text text-anchor="start" x="136" y="-283.3" font-family="Times,serif" font-size="14.00" fill="#000000">create</text>
<text text-anchor="start" x="136" y="-269.3" font-family="Times,serif" font-size="14.00" fill="#000000">index</text>
<polyline fill="none" stroke="#000000" points="128,-262.5 315.8828,-262.5 "/>
<polyline fill="none" stroke="#000000" points="128,-238.5 315.8828,-238.5 "/>
<text text-anchor="start" x="136" y="-223.3" font-family="Times,serif" font-size="14.00" fill="#000000">_layout</text>
<text text-anchor="start" x="136" y="-209.3" font-family="Times,serif" font-size="14.00" fill="#000000">comment_params</text>
<text text-anchor="start" x="136" y="-195.3" font-family="Times,serif" font-size="14.00" fill="#000000">create_talk_thread</text>
<text text-anchor="start" x="136" y="-181.3" font-family="Times,serif" font-size="14.00" fill="#000000">find_to_user_id</text>
<text text-anchor="start" x="136" y="-167.3" font-family="Times,serif" font-size="14.00" fill="#000000">thread_find_or_create</text>
</g>
<!-- ApplicationController -->
<g id="node3" class="node">
<title>ApplicationController</title>
<path fill="none" stroke="#000000" d="M364,-128.5C364,-128.5 537.9316,-128.5 537.9316,-128.5 543.9316,-128.5 549.9316,-134.5 549.9316,-140.5 549.9316,-140.5 549.9316,-220.5 549.9316,-220.5 549.9316,-226.5 543.9316,-232.5 537.9316,-232.5 537.9316,-232.5 364,-232.5 364,-232.5 358,-232.5 352,-226.5 352,-220.5 352,-220.5 352,-140.5 352,-140.5 352,-134.5 358,-128.5 364,-128.5"/>
<text text-anchor="middle" x="450.9658" y="-217.3" font-family="Times,serif" font-size="14.00" fill="#000000">ApplicationController</text>
<polyline fill="none" stroke="#000000" points="352,-210.5 549.9316,-210.5 "/>
<text text-anchor="start" x="360" y="-195.3" font-family="Times,serif" font-size="14.00" fill="#000000">configure_permitted_parameters</text>
<text text-anchor="start" x="360" y="-181.3" font-family="Times,serif" font-size="14.00" fill="#000000">logged_in_user</text>
<polyline fill="none" stroke="#000000" points="352,-174.5 549.9316,-174.5 "/>
<polyline fill="none" stroke="#000000" points="352,-150.5 549.9316,-150.5 "/>
<text text-anchor="start" x="360" y="-135.3" font-family="Times,serif" font-size="14.00" fill="#000000">_layout</text>
</g>
<!-- CommentsController -->
<g id="node4" class="node">
<title>CommentsController</title>
<path fill="none" stroke="#000000" d="M124,-368.5C124,-368.5 278.5176,-368.5 278.5176,-368.5 284.5176,-368.5 290.5176,-374.5 290.5176,-380.5 290.5176,-380.5 290.5176,-474.5 290.5176,-474.5 290.5176,-480.5 284.5176,-486.5 278.5176,-486.5 278.5176,-486.5 124,-486.5 124,-486.5 118,-486.5 112,-480.5 112,-474.5 112,-474.5 112,-380.5 112,-380.5 112,-374.5 118,-368.5 124,-368.5"/>
<text text-anchor="middle" x="201.2588" y="-471.3" font-family="Times,serif" font-size="14.00" fill="#000000">CommentsController</text>
<polyline fill="none" stroke="#000000" points="112,-464.5 290.5176,-464.5 "/>
<text text-anchor="start" x="120" y="-449.3" font-family="Times,serif" font-size="14.00" fill="#000000">index</text>
<polyline fill="none" stroke="#000000" points="112,-442.5 290.5176,-442.5 "/>
<polyline fill="none" stroke="#000000" points="112,-418.5 290.5176,-418.5 "/>
<text text-anchor="start" x="120" y="-403.3" font-family="Times,serif" font-size="14.00" fill="#000000">_layout</text>
<text text-anchor="start" x="120" y="-389.3" font-family="Times,serif" font-size="14.00" fill="#000000">find_thread_to_user</text>
<text text-anchor="start" x="120" y="-375.3" font-family="Times,serif" font-size="14.00" fill="#000000">mistake_url_is_redirext_root</text>
</g>
<!-- TopController -->
<g id="node5" class="node">
<title>TopController</title>
<path fill="none" stroke="#000000" d="M12,-224.5C12,-224.5 91.1035,-224.5 91.1035,-224.5 97.1035,-224.5 103.1035,-230.5 103.1035,-236.5 103.1035,-236.5 103.1035,-330.5 103.1035,-330.5 103.1035,-336.5 97.1035,-342.5 91.1035,-342.5 91.1035,-342.5 12,-342.5 12,-342.5 6,-342.5 0,-336.5 0,-330.5 0,-330.5 0,-236.5 0,-236.5 0,-230.5 6,-224.5 12,-224.5"/>
<text text-anchor="middle" x="51.5518" y="-327.3" font-family="Times,serif" font-size="14.00" fill="#000000">TopController</text>
<polyline fill="none" stroke="#000000" points="0,-320.5 103.1035,-320.5 "/>
<text text-anchor="start" x="8" y="-305.3" font-family="Times,serif" font-size="14.00" fill="#000000">index</text>
<text text-anchor="start" x="8" y="-291.3" font-family="Times,serif" font-size="14.00" fill="#000000">show</text>
<polyline fill="none" stroke="#000000" points="0,-284.5 103.1035,-284.5 "/>
<polyline fill="none" stroke="#000000" points="0,-260.5 103.1035,-260.5 "/>
<text text-anchor="start" x="8" y="-245.3" font-family="Times,serif" font-size="14.00" fill="#000000">_layout</text>
<text text-anchor="start" x="8" y="-231.3" font-family="Times,serif" font-size="14.00" fill="#000000">has_tt_user_ids</text>
</g>
<!-- Users::ConfirmationsController -->
<g id="node6" class="node">
<title>Users::ConfirmationsController</title>
<path fill="none" stroke="#000000" d="M460,-480.5C460,-480.5 629.3242,-480.5 629.3242,-480.5 635.3242,-480.5 641.3242,-486.5 641.3242,-492.5 641.3242,-492.5 641.3242,-560.5 641.3242,-560.5 641.3242,-566.5 635.3242,-572.5 629.3242,-572.5 629.3242,-572.5 460,-572.5 460,-572.5 454,-572.5 448,-566.5 448,-560.5 448,-560.5 448,-492.5 448,-492.5 448,-486.5 454,-480.5 460,-480.5"/>
<text text-anchor="middle" x="544.6621" y="-557.3" font-family="Times,serif" font-size="14.00" fill="#000000">Users::ConfirmationsController</text>
<polyline fill="none" stroke="#000000" points="448,-550.5 641.3242,-550.5 "/>
<polyline fill="none" stroke="#000000" points="448,-526.5 641.3242,-526.5 "/>
<polyline fill="none" stroke="#000000" points="448,-502.5 641.3242,-502.5 "/>
<text text-anchor="start" x="456" y="-487.3" font-family="Times,serif" font-size="14.00" fill="#000000">_layout</text>
</g>
<!-- Users::OmniauthCallbacksController -->
<g id="node7" class="node">
<title>Users::OmniauthCallbacksController</title>
<path fill="none" stroke="#000000" d="M332,-352.5C332,-352.5 532.4072,-352.5 532.4072,-352.5 538.4072,-352.5 544.4072,-358.5 544.4072,-364.5 544.4072,-364.5 544.4072,-432.5 544.4072,-432.5 544.4072,-438.5 538.4072,-444.5 532.4072,-444.5 532.4072,-444.5 332,-444.5 332,-444.5 326,-444.5 320,-438.5 320,-432.5 320,-432.5 320,-364.5 320,-364.5 320,-358.5 326,-352.5 332,-352.5"/>
<text text-anchor="middle" x="432.2036" y="-429.3" font-family="Times,serif" font-size="14.00" fill="#000000">Users::OmniauthCallbacksController</text>
<polyline fill="none" stroke="#000000" points="320,-422.5 544.4072,-422.5 "/>
<polyline fill="none" stroke="#000000" points="320,-398.5 544.4072,-398.5 "/>
<polyline fill="none" stroke="#000000" points="320,-374.5 544.4072,-374.5 "/>
<text text-anchor="start" x="328" y="-359.3" font-family="Times,serif" font-size="14.00" fill="#000000">_layout</text>
</g>
<!-- Users::PasswordsController -->
<g id="node8" class="node">
<title>Users::PasswordsController</title>
<path fill="none" stroke="#000000" d="M492,-.5C492,-.5 640.3242,-.5 640.3242,-.5 646.3242,-.5 652.3242,-6.5 652.3242,-12.5 652.3242,-12.5 652.3242,-80.5 652.3242,-80.5 652.3242,-86.5 646.3242,-92.5 640.3242,-92.5 640.3242,-92.5 492,-92.5 492,-92.5 486,-92.5 480,-86.5 480,-80.5 480,-80.5 480,-12.5 480,-12.5 480,-6.5 486,-.5 492,-.5"/>
<text text-anchor="middle" x="566.1621" y="-77.3" font-family="Times,serif" font-size="14.00" fill="#000000">Users::PasswordsController</text>
<polyline fill="none" stroke="#000000" points="480,-70.5 652.3242,-70.5 "/>
<polyline fill="none" stroke="#000000" points="480,-46.5 652.3242,-46.5 "/>
<polyline fill="none" stroke="#000000" points="480,-22.5 652.3242,-22.5 "/>
<text text-anchor="start" x="488" y="-7.3" font-family="Times,serif" font-size="14.00" fill="#000000">_layout</text>
</g>
<!-- Users::RegistrationsController -->
<g id="node9" class="node">
<title>Users::RegistrationsController</title>
<path fill="none" stroke="#000000" d="M268,-.5C268,-.5 431.0898,-.5 431.0898,-.5 437.0898,-.5 443.0898,-6.5 443.0898,-12.5 443.0898,-12.5 443.0898,-80.5 443.0898,-80.5 443.0898,-86.5 437.0898,-92.5 431.0898,-92.5 431.0898,-92.5 268,-92.5 268,-92.5 262,-92.5 256,-86.5 256,-80.5 256,-80.5 256,-12.5 256,-12.5 256,-6.5 262,-.5 268,-.5"/>
<text text-anchor="middle" x="349.5449" y="-77.3" font-family="Times,serif" font-size="14.00" fill="#000000">Users::RegistrationsController</text>
<polyline fill="none" stroke="#000000" points="256,-70.5 443.0898,-70.5 "/>
<polyline fill="none" stroke="#000000" points="256,-46.5 443.0898,-46.5 "/>
<polyline fill="none" stroke="#000000" points="256,-22.5 443.0898,-22.5 "/>
<text text-anchor="start" x="264" y="-7.3" font-family="Times,serif" font-size="14.00" fill="#000000">_layout</text>
</g>
<!-- Users::SessionsController -->
<g id="node10" class="node">
<title>Users::SessionsController</title>
<path fill="none" stroke="#000000" d="M268,-512.5C268,-512.5 405.4414,-512.5 405.4414,-512.5 411.4414,-512.5 417.4414,-518.5 417.4414,-524.5 417.4414,-524.5 417.4414,-592.5 417.4414,-592.5 417.4414,-598.5 411.4414,-604.5 405.4414,-604.5 405.4414,-604.5 268,-604.5 268,-604.5 262,-604.5 256,-598.5 256,-592.5 256,-592.5 256,-524.5 256,-524.5 256,-518.5 262,-512.5 268,-512.5"/>
<text text-anchor="middle" x="336.7207" y="-589.3" font-family="Times,serif" font-size="14.00" fill="#000000">Users::SessionsController</text>
<polyline fill="none" stroke="#000000" points="256,-582.5 417.4414,-582.5 "/>
<polyline fill="none" stroke="#000000" points="256,-558.5 417.4414,-558.5 "/>
<polyline fill="none" stroke="#000000" points="256,-534.5 417.4414,-534.5 "/>
<text text-anchor="start" x="264" y="-519.3" font-family="Times,serif" font-size="14.00" fill="#000000">_layout</text>
</g>
<!-- Users::UnlocksController -->
<g id="node11" class="node">
<title>Users::UnlocksController</title>
<path fill="none" stroke="#000000" d="M76,-512.5C76,-512.5 211.8691,-512.5 211.8691,-512.5 217.8691,-512.5 223.8691,-518.5 223.8691,-524.5 223.8691,-524.5 223.8691,-592.5 223.8691,-592.5 223.8691,-598.5 217.8691,-604.5 211.8691,-604.5 211.8691,-604.5 76,-604.5 76,-604.5 70,-604.5 64,-598.5 64,-592.5 64,-592.5 64,-524.5 64,-524.5 64,-518.5 70,-512.5 76,-512.5"/>
<text text-anchor="middle" x="143.9346" y="-589.3" font-family="Times,serif" font-size="14.00" fill="#000000">Users::UnlocksController</text>
<polyline fill="none" stroke="#000000" points="64,-582.5 223.8691,-582.5 "/>
<polyline fill="none" stroke="#000000" points="64,-558.5 223.8691,-558.5 "/>
<polyline fill="none" stroke="#000000" points="64,-534.5 223.8691,-534.5 "/>
<text text-anchor="start" x="72" y="-519.3" font-family="Times,serif" font-size="14.00" fill="#000000">_layout</text>
</g>
</g>
</svg>
