<?xml version="1.0" encoding="UTF-8" standalone="no"?>
<!DOCTYPE svg PUBLIC "-//W3C//DTD SVG 1.1//EN"
 "http://www.w3.org/Graphics/SVG/1.1/DTD/svg11.dtd">
<!-- Generated by graphviz version 2.40.1 (20161225.0304)
 -->
<!-- Title: models_diagram Pages: 1 -->
<svg width="407pt" height="153pt"
 viewBox="0.00 0.00 406.69 153.00" xmlns="http://www.w3.org/2000/svg" xmlns:xlink="http://www.w3.org/1999/xlink">
<g id="graph0" class="graph" transform="scale(1 1) rotate(0) translate(4 149)">
<title>models_diagram</title>
<polygon fill="transparent" stroke="transparent" points="-4,4 -4,-149 402.6877,-149 402.6877,4 -4,4"/>
<!-- _diagram_info -->
<g id="node1" class="node">
<title>_diagram_info</title>
<text text-anchor="start" x="8" y="-130.6" font-family="Times,serif" font-size="13.00" fill="#000000">Models diagram</text>
<text text-anchor="start" x="8" y="-117.6" font-family="Times,serif" font-size="13.00" fill="#000000">Date: May 22 2017 &#45; 10:57</text>
<text text-anchor="start" x="8" y="-104.6" font-family="Times,serif" font-size="13.00" fill="#000000">Migration version: 20170506012256</text>
<text text-anchor="start" x="8" y="-91.6" font-family="Times,serif" font-size="13.00" fill="#000000">Generated by RailRoady 1.5.2</text>
<text text-anchor="start" x="8" y="-78.6" font-family="Times,serif" font-size="13.00" fill="#000000">http://railroady.prestonlee.com</text>
</g>
<!-- Comment -->
<g id="node2" class="node">
<title>Comment</title>
<ellipse fill="none" stroke="#000000" cx="323.6877" cy="-18" rx="44.9768" ry="18"/>
<text text-anchor="middle" x="323.6877" y="-13.8" font-family="Times,serif" font-size="14.00" fill="#000000">Comment</text>
</g>
<!-- TalkThread -->
<g id="node3" class="node">
<title>TalkThread</title>
<ellipse fill="none" stroke="#000000" cx="275.6877" cy="-108.5" rx="50.9727" ry="18"/>
<text text-anchor="middle" x="275.6877" y="-104.3" font-family="Times,serif" font-size="14.00" fill="#000000">TalkThread</text>
</g>
<!-- TalkThread&#45;&gt;Comment -->
<g id="edge1" class="edge">
<title>TalkThread&#45;&gt;Comment</title>
<path fill="none" stroke="#222b86" d="M288.9261,-83.5401C295.3201,-71.4848 302.9993,-57.0064 309.5119,-44.7274"/>
<ellipse fill="none" stroke="#222b86" cx="287.0453" cy="-87.0864" rx="4" ry="4"/>
<polygon fill="#222b86" stroke="#222b86" points="309.5385,-44.6771 318.1996,-37.9513 311.8814,-40.2599 314.2242,-35.8427 314.2242,-35.8427 314.2242,-35.8427 311.8814,-40.2599 310.2487,-33.7342 309.5385,-44.6771 309.5385,-44.6771"/>
</g>
<!-- User -->
<g id="node4" class="node">
<title>User</title>
<ellipse fill="none" stroke="#000000" cx="371.6877" cy="-108.5" rx="27" ry="18"/>
<text text-anchor="middle" x="371.6877" y="-104.3" font-family="Times,serif" font-size="14.00" fill="#000000">User</text>
</g>
<!-- User&#45;&gt;Comment -->
<g id="edge2" class="edge">
<title>User&#45;&gt;Comment</title>
<path fill="none" stroke="#bc9258" d="M358.8873,-84.3658C352.4428,-72.2152 344.6095,-57.4462 337.97,-44.9281"/>
<ellipse fill="none" stroke="#bc9258" cx="360.785" cy="-87.9439" rx="4" ry="4"/>
<polygon fill="#bc9258" stroke="#bc9258" points="337.854,-44.7091 337.1438,-33.7663 335.5111,-40.292 333.1683,-35.8748 333.1683,-35.8748 333.1683,-35.8748 335.5111,-40.292 329.1929,-37.9834 337.854,-44.7091 337.854,-44.7091"/>
</g>
</g>
</svg>
