<?xml version="1.0" encoding="UTF-8" standalone="no"?>
<!DOCTYPE svg PUBLIC "-//W3C//DTD SVG 1.1//EN"
 "http://www.w3.org/Graphics/SVG/1.1/DTD/svg11.dtd">
<!-- Generated by graphviz version 2.40.1 (20161225.0304)
 -->
<!-- Title: models_diagram Pages: 1 -->
<svg width="585pt" height="358pt"
 viewBox="0.00 0.00 585.40 358.00" xmlns="http://www.w3.org/2000/svg" xmlns:xlink="http://www.w3.org/1999/xlink">
<g id="graph0" class="graph" transform="scale(1 1) rotate(0) translate(4 354)">
<title>models_diagram</title>
<polygon fill="transparent" stroke="transparent" points="-4,4 -4,-354 581.3953,-354 581.3953,4 -4,4"/>
<!-- _diagram_info -->
<g id="node1" class="node">
<title>_diagram_info</title>
<text text-anchor="start" x="8" y="-272.6" font-family="Times,serif" font-size="13.00" fill="#000000">Models diagram</text>
<text text-anchor="start" x="8" y="-259.6" font-family="Times,serif" font-size="13.00" fill="#000000">Date: May 22 2017 &#45; 10:57</text>
<text text-anchor="start" x="8" y="-246.6" font-family="Times,serif" font-size="13.00" fill="#000000">Migration version: 20170506012256</text>
<text text-anchor="start" x="8" y="-233.6" font-family="Times,serif" font-size="13.00" fill="#000000">Generated by RailRoady 1.5.2</text>
<text text-anchor="start" x="8" y="-220.6" font-family="Times,serif" font-size="13.00" fill="#000000">http://railroady.prestonlee.com</text>
</g>
<!-- Comment -->
<g id="node2" class="node">
<title>Comment</title>
<path fill="none" stroke="#000000" d="M332.9031,-.5C332.9031,-.5 450.4724,-.5 450.4724,-.5 456.4724,-.5 462.4724,-6.5 462.4724,-12.5 462.4724,-12.5 462.4724,-102.5 462.4724,-102.5 462.4724,-108.5 456.4724,-114.5 450.4724,-114.5 450.4724,-114.5 332.9031,-114.5 332.9031,-114.5 326.9031,-114.5 320.9031,-108.5 320.9031,-102.5 320.9031,-102.5 320.9031,-12.5 320.9031,-12.5 320.9031,-6.5 326.9031,-.5 332.9031,-.5"/>
<text text-anchor="middle" x="391.6877" y="-99.3" font-family="Times,serif" font-size="14.00" fill="#000000">Comment</text>
<polyline fill="none" stroke="#000000" points="320.9031,-92.5 462.4724,-92.5 "/>
<text text-anchor="start" x="328.9031" y="-77.3" font-family="Times,serif" font-size="14.00" fill="#000000">_id :BSON::ObjectId</text>
<text text-anchor="start" x="328.9031" y="-63.3" font-family="Times,serif" font-size="14.00" fill="#000000">created_at :Time</text>
<text text-anchor="start" x="328.9031" y="-49.3" font-family="Times,serif" font-size="14.00" fill="#000000">talk_thread_id :Object</text>
<text text-anchor="start" x="328.9031" y="-35.3" font-family="Times,serif" font-size="14.00" fill="#000000">text :Object</text>
<text text-anchor="start" x="328.9031" y="-21.3" font-family="Times,serif" font-size="14.00" fill="#000000">updated_at :Time</text>
<text text-anchor="start" x="328.9031" y="-7.3" font-family="Times,serif" font-size="14.00" fill="#000000">user_id :Object</text>
</g>
<!-- TalkThread -->
<g id="node3" class="node">
<title>TalkThread</title>
<path fill="none" stroke="#000000" d="M237.7893,-200.5C237.7893,-200.5 361.5862,-200.5 361.5862,-200.5 367.5862,-200.5 373.5862,-206.5 373.5862,-212.5 373.5862,-212.5 373.5862,-288.5 373.5862,-288.5 373.5862,-294.5 367.5862,-300.5 361.5862,-300.5 361.5862,-300.5 237.7893,-300.5 237.7893,-300.5 231.7893,-300.5 225.7893,-294.5 225.7893,-288.5 225.7893,-288.5 225.7893,-212.5 225.7893,-212.5 225.7893,-206.5 231.7893,-200.5 237.7893,-200.5"/>
<text text-anchor="middle" x="299.6877" y="-285.3" font-family="Times,serif" font-size="14.00" fill="#000000">TalkThread</text>
<polyline fill="none" stroke="#000000" points="225.7893,-278.5 373.5862,-278.5 "/>
<text text-anchor="start" x="233.7893" y="-263.3" font-family="Times,serif" font-size="14.00" fill="#000000">_id :BSON::ObjectId</text>
<text text-anchor="start" x="233.7893" y="-249.3" font-family="Times,serif" font-size="14.00" fill="#000000">created_at :Time</text>
<text text-anchor="start" x="233.7893" y="-235.3" font-family="Times,serif" font-size="14.00" fill="#000000">first_user_id :Object</text>
<text text-anchor="start" x="233.7893" y="-221.3" font-family="Times,serif" font-size="14.00" fill="#000000">second_user_id :Object</text>
<text text-anchor="start" x="233.7893" y="-207.3" font-family="Times,serif" font-size="14.00" fill="#000000">updated_at :Time</text>
</g>
<!-- TalkThread&#45;&gt;Comment -->
<g id="edge1" class="edge">
<title>TalkThread&#45;&gt;Comment</title>
<path fill="none" stroke="#68289d" d="M327.2093,-192.7646C337.5644,-171.0414 349.4178,-146.175 360.1135,-123.7373"/>
<ellipse fill="none" stroke="#68289d" cx="325.3407" cy="-196.6846" rx="4" ry="4"/>
<polygon fill="#68289d" stroke="#68289d" points="360.1585,-123.6428 368.5236,-116.5522 362.31,-119.1293 364.4615,-114.6159 364.4615,-114.6159 364.4615,-114.6159 362.31,-119.1293 360.3994,-112.6795 360.1585,-123.6428 360.1585,-123.6428"/>
</g>
<!-- User -->
<g id="node4" class="node">
<title>User</title>
<path fill="none" stroke="#000000" d="M403.9802,-151.5C403.9802,-151.5 565.3953,-151.5 565.3953,-151.5 571.3953,-151.5 577.3953,-157.5 577.3953,-163.5 577.3953,-163.5 577.3953,-337.5 577.3953,-337.5 577.3953,-343.5 571.3953,-349.5 565.3953,-349.5 565.3953,-349.5 403.9802,-349.5 403.9802,-349.5 397.9802,-349.5 391.9802,-343.5 391.9802,-337.5 391.9802,-337.5 391.9802,-163.5 391.9802,-163.5 391.9802,-157.5 397.9802,-151.5 403.9802,-151.5"/>
<text text-anchor="middle" x="484.6877" y="-334.3" font-family="Times,serif" font-size="14.00" fill="#000000">User</text>
<polyline fill="none" stroke="#000000" points="391.9802,-327.5 577.3953,-327.5 "/>
<text text-anchor="start" x="399.9802" y="-312.3" font-family="Times,serif" font-size="14.00" fill="#000000">sign_in_count :Integer</text>
<text text-anchor="start" x="399.9802" y="-298.3" font-family="Times,serif" font-size="14.00" fill="#000000">current_sign_in_at :Time</text>
<text text-anchor="start" x="399.9802" y="-284.3" font-family="Times,serif" font-size="14.00" fill="#000000">current_sign_in_ip :String</text>
<text text-anchor="start" x="399.9802" y="-270.3" font-family="Times,serif" font-size="14.00" fill="#000000">email :String</text>
<text text-anchor="start" x="399.9802" y="-256.3" font-family="Times,serif" font-size="14.00" fill="#000000">encrypted_password :String</text>
<text text-anchor="start" x="399.9802" y="-242.3" font-family="Times,serif" font-size="14.00" fill="#000000">last_sign_in_at :Time</text>
<text text-anchor="start" x="399.9802" y="-228.3" font-family="Times,serif" font-size="14.00" fill="#000000">last_sign_in_ip :String</text>
<text text-anchor="start" x="399.9802" y="-214.3" font-family="Times,serif" font-size="14.00" fill="#000000">name :String</text>
<text text-anchor="start" x="399.9802" y="-200.3" font-family="Times,serif" font-size="14.00" fill="#000000">remember_created_at :Time</text>
<text text-anchor="start" x="399.9802" y="-186.3" font-family="Times,serif" font-size="14.00" fill="#000000">reset_password_sent_at :Time</text>
<text text-anchor="start" x="399.9802" y="-172.3" font-family="Times,serif" font-size="14.00" fill="#000000">reset_password_token :String</text>
<text text-anchor="start" x="399.9802" y="-158.3" font-family="Times,serif" font-size="14.00" fill="#000000">_id :BSON::ObjectId</text>
</g>
<!-- User&#45;&gt;Comment -->
<g id="edge2" class="edge">
<title>User&#45;&gt;Comment</title>
<path fill="none" stroke="#4cf458" d="M433.4141,-144.0935C430.1493,-137.3181 426.9162,-130.6085 423.7801,-124.1003"/>
<ellipse fill="none" stroke="#4cf458" cx="435.2254" cy="-147.8524" rx="4" ry="4"/>
<polygon fill="#4cf458" stroke="#4cf458" points="423.6034,-123.7335 423.3163,-112.7714 421.4329,-119.2292 419.2624,-114.7248 419.2624,-114.7248 419.2624,-114.7248 421.4329,-119.2292 415.2085,-116.6783 423.6034,-123.7335 423.6034,-123.7335"/>
</g>
</g>
</svg>
