<?xml version="1.0" encoding="UTF-8" standalone="no"?>
<!DOCTYPE svg PUBLIC "-//W3C//DTD SVG 1.1//EN"
 "http://www.w3.org/Graphics/SVG/1.1/DTD/svg11.dtd">
<!-- Generated by graphviz version 2.40.1 (20161225.0304)
 -->
<!-- Title: models_diagram Pages: 1 -->
<svg width="360pt" height="358pt"
 viewBox="0.00 0.00 359.61 358.00" xmlns="http://www.w3.org/2000/svg" xmlns:xlink="http://www.w3.org/1999/xlink">
<g id="graph0" class="graph" transform="scale(1 1) rotate(0) translate(4 354)">
<title>models_diagram</title>
<polygon fill="transparent" stroke="transparent" points="-4,4 -4,-354 355.606,-354 355.606,4 -4,4"/>
<!-- Comment -->
<g id="node1" class="node">
<title>Comment</title>
<path fill="none" stroke="#000000" d="M107.1138,-.5C107.1138,-.5 224.6831,-.5 224.6831,-.5 230.6831,-.5 236.6831,-6.5 236.6831,-12.5 236.6831,-12.5 236.6831,-102.5 236.6831,-102.5 236.6831,-108.5 230.6831,-114.5 224.6831,-114.5 224.6831,-114.5 107.1138,-114.5 107.1138,-114.5 101.1138,-114.5 95.1138,-108.5 95.1138,-102.5 95.1138,-102.5 95.1138,-12.5 95.1138,-12.5 95.1138,-6.5 101.1138,-.5 107.1138,-.5"/>
<text text-anchor="middle" x="165.8984" y="-99.3" font-family="Times,serif" font-size="14.00" fill="#000000">Comment</text>
<polyline fill="none" stroke="#000000" points="95.1138,-92.5 236.6831,-92.5 "/>
<text text-anchor="start" x="103.1138" y="-77.3" font-family="Times,serif" font-size="14.00" fill="#000000">_id :BSON::ObjectId</text>
<text text-anchor="start" x="103.1138" y="-63.3" font-family="Times,serif" font-size="14.00" fill="#000000">created_at :Time</text>
<text text-anchor="start" x="103.1138" y="-49.3" font-family="Times,serif" font-size="14.00" fill="#000000">talk_thread_id :Object</text>
<text text-anchor="start" x="103.1138" y="-35.3" font-family="Times,serif" font-size="14.00" fill="#000000">text :Object</text>
<text text-anchor="start" x="103.1138" y="-21.3" font-family="Times,serif" font-size="14.00" fill="#000000">updated_at :Time</text>
<text text-anchor="start" x="103.1138" y="-7.3" font-family="Times,serif" font-size="14.00" fill="#000000">user_id :Object</text>
</g>
<!-- TalkThread -->
<g id="node2" class="node">
<title>TalkThread</title>
<path fill="none" stroke="#000000" d="M12,-200.5C12,-200.5 135.7969,-200.5 135.7969,-200.5 141.7969,-200.5 147.7969,-206.5 147.7969,-212.5 147.7969,-212.5 147.7969,-288.5 147.7969,-288.5 147.7969,-294.5 141.7969,-300.5 135.7969,-300.5 135.7969,-300.5 12,-300.5 12,-300.5 6,-300.5 0,-294.5 0,-288.5 0,-288.5 0,-212.5 0,-212.5 0,-206.5 6,-200.5 12,-200.5"/>
<text text-anchor="middle" x="73.8984" y="-285.3" font-family="Times,serif" font-size="14.00" fill="#000000">TalkThread</text>
<polyline fill="none" stroke="#000000" points="0,-278.5 147.7969,-278.5 "/>
<text text-anchor="start" x="8" y="-263.3" font-family="Times,serif" font-size="14.00" fill="#000000">_id :BSON::ObjectId</text>
<text text-anchor="start" x="8" y="-249.3" font-family="Times,serif" font-size="14.00" fill="#000000">created_at :Time</text>
<text text-anchor="start" x="8" y="-235.3" font-family="Times,serif" font-size="14.00" fill="#000000">first_user_id :Object</text>
<text text-anchor="start" x="8" y="-221.3" font-family="Times,serif" font-size="14.00" fill="#000000">second_user_id :Object</text>
<text text-anchor="start" x="8" y="-207.3" font-family="Times,serif" font-size="14.00" fill="#000000">updated_at :Time</text>
</g>
<!-- TalkThread&#45;&gt;Comment -->
<g id="edge1" class="edge">
<title>TalkThread&#45;&gt;Comment</title>
<path fill="none" stroke="#f7d46d" d="M101.42,-192.7646C111.7751,-171.0414 123.6285,-146.175 134.3242,-123.7373"/>
<ellipse fill="none" stroke="#f7d46d" cx="99.5514" cy="-196.6846" rx="4" ry="4"/>
<polygon fill="#f7d46d" stroke="#f7d46d" points="134.3692,-123.6428 142.7343,-116.5522 136.5207,-119.1293 138.6722,-114.6159 138.6722,-114.6159 138.6722,-114.6159 136.5207,-119.1293 134.6101,-112.6795 134.3692,-123.6428 134.3692,-123.6428"/>
</g>
<!-- User -->
<g id="node3" class="node">
<title>User</title>
<path fill="none" stroke="#000000" d="M178.1909,-151.5C178.1909,-151.5 339.606,-151.5 339.606,-151.5 345.606,-151.5 351.606,-157.5 351.606,-163.5 351.606,-163.5 351.606,-337.5 351.606,-337.5 351.606,-343.5 345.606,-349.5 339.606,-349.5 339.606,-349.5 178.1909,-349.5 178.1909,-349.5 172.1909,-349.5 166.1909,-343.5 166.1909,-337.5 166.1909,-337.5 166.1909,-163.5 166.1909,-163.5 166.1909,-157.5 172.1909,-151.5 178.1909,-151.5"/>
<text text-anchor="middle" x="258.8984" y="-334.3" font-family="Times,serif" font-size="14.00" fill="#000000">User</text>
<polyline fill="none" stroke="#000000" points="166.1909,-327.5 351.606,-327.5 "/>
<text text-anchor="start" x="174.1909" y="-312.3" font-family="Times,serif" font-size="14.00" fill="#000000">sign_in_count :Integer</text>
<text text-anchor="start" x="174.1909" y="-298.3" font-family="Times,serif" font-size="14.00" fill="#000000">current_sign_in_at :Time</text>
<text text-anchor="start" x="174.1909" y="-284.3" font-family="Times,serif" font-size="14.00" fill="#000000">current_sign_in_ip :String</text>
<text text-anchor="start" x="174.1909" y="-270.3" font-family="Times,serif" font-size="14.00" fill="#000000">email :String</text>
<text text-anchor="start" x="174.1909" y="-256.3" font-family="Times,serif" font-size="14.00" fill="#000000">encrypted_password :String</text>
<text text-anchor="start" x="174.1909" y="-242.3" font-family="Times,serif" font-size="14.00" fill="#000000">last_sign_in_at :Time</text>
<text text-anchor="start" x="174.1909" y="-228.3" font-family="Times,serif" font-size="14.00" fill="#000000">last_sign_in_ip :String</text>
<text text-anchor="start" x="174.1909" y="-214.3" font-family="Times,serif" font-size="14.00" fill="#000000">name :String</text>
<text text-anchor="start" x="174.1909" y="-200.3" font-family="Times,serif" font-size="14.00" fill="#000000">remember_created_at :Time</text>
<text text-anchor="start" x="174.1909" y="-186.3" font-family="Times,serif" font-size="14.00" fill="#000000">reset_password_sent_at :Time</text>
<text text-anchor="start" x="174.1909" y="-172.3" font-family="Times,serif" font-size="14.00" fill="#000000">reset_password_token :String</text>
<text text-anchor="start" x="174.1909" y="-158.3" font-family="Times,serif" font-size="14.00" fill="#000000">_id :BSON::ObjectId</text>
</g>
<!-- User&#45;&gt;Comment -->
<g id="edge2" class="edge">
<title>User&#45;&gt;Comment</title>
<path fill="none" stroke="#60049d" d="M207.6248,-144.0935C204.36,-137.3181 201.1269,-130.6085 197.9908,-124.1003"/>
<ellipse fill="none" stroke="#60049d" cx="209.4361" cy="-147.8524" rx="4" ry="4"/>
<polygon fill="#60049d" stroke="#60049d" points="197.8141,-123.7335 197.527,-112.7714 195.6436,-119.2292 193.4731,-114.7248 193.4731,-114.7248 193.4731,-114.7248 195.6436,-119.2292 189.4192,-116.6783 197.8141,-123.7335 197.8141,-123.7335"/>
</g>
</g>
</svg>
